<svg version="1.1" viewBox="0.0 0.0 869.7349081364829 168.95800524934384" fill="none" stroke="none" stroke-linecap="square" stroke-miterlimit="10" xmlns:xlink="http://www.w3.org/1999/xlink" xmlns="http://www.w3.org/2000/svg"><clipPath id="p.0"><path d="m0 0l869.7349 0l0 168.95801l-869.7349 0l0 -168.95801z" clip-rule="nonzero"/></clipPath><g clip-path="url(#p.0)"><path fill="#000000" fill-opacity="0.0" d="m0 0l869.7349 0l0 168.95801l-869.7349 0z" fill-rule="evenodd"/><g mask="url(#mask-p.1)"><use xlink:href="#p.1" transform="matrix(1.0 0.0 0.0 -1.0 0.0 266.2329280839895)"/></g><defs><mask id="mask-p.1" maskUnits="userSpaceOnUse" x="-0.0013123359580052493" y="135.11646404199476" width="212.4354026246719" height="123.06527559055118"><linearGradient gradientUnits="userSpaceOnUse" id="gradient-p.1" x1="-0.0013123331741646065" y1="135.11569502794535" x2="-0.0014459825375419495" y2="172.03550987590327"><stop offset="0%" stop-color="#ffffff" stop-opacity="1.0"/><stop offset="100%" stop-color="#ffffff" stop-opacity="0.0"/></linearGradient><rect fill="url(#gradient-p.1)" x="-0.0013123359580052493" y="135.11646404199476" width="212.4354026246719" height="123.06527559055118"/></mask></defs><g id="p.1"><path fill="#6ed0ff" d="m204.40518 81.938705l-102.72798 -29.08688l-14.258453 15.37878l75.18242 32.09606l-90.73759 -12.704575l-22.68406 25.074875l163.25458 17.99131l-212.43541 0.42819214l77.04972 -99.66179l-5.1848297 -23.403496z" fill-rule="evenodd"/></g><path fill="#000000" fill-opacity="0.0" d="m205.73851 30.292086l671.1811 0l0 130.11024l-671.1811 0z" fill-rule="evenodd"/><path fill="#4dc5ff" d="m273.12378 129.00232l-14.46875 -17.265625l11.53125 0l12.53125 14.796875l0 2.46875l-9.59375 0zm-38.26561 0l0 -47.921875l38.656235 0q2.53125 0 4.65625 1.265625q2.140625 1.265625 3.40625 3.375q1.265625 2.09375 1.265625 4.625l0 12.921875q0 2.53125 -1.265625 4.671875q-1.265625 2.125 -3.40625 3.359375q-2.125 1.234375 -4.65625 1.234375l-29.85936 0.078125l0 16.390625l-8.796875 0zm9.59375 -25.328125l28.67186 0q0.328125 0 0.59375 -0.203125q0.265625 -0.203125 0.265625 -0.53125l0 -12.265625q0 -0.328125 -0.265625 -0.5625q-0.265625 -0.234375 -0.59375 -0.234375l-28.67186 0q-0.328125 0 -0.5625 0.234375q-0.234375 0.234375 -0.234375 0.5625l0 12.265625q0 0.328125 0.234375 0.53125q0.234375 0.203125 0.5625 0.203125zm64.85707 25.328125l0 -48.0l8.734375 0l0 48.0l-8.734375 0zm44.86444 0q-2.53125 0 -4.640625 -1.265625q-2.09375 -1.265625 -3.359375 -3.359375q-1.265625 -2.109375 -1.265625 -4.640625l0 -29.46875q0 -2.53125 1.265625 -4.625q1.265625 -2.09375 3.359375 -3.359375q2.109375 -1.28125 4.640625 -1.28125l38.59375 0l0 8.875l-36.734375 0q-1.0625 0 -1.703125 0.609375q-0.625 0.59375 -0.625 1.71875l0 25.59375q0 1.078125 0.625 1.71875q0.640625 0.625 1.703125 0.625l36.734375 0l0 8.859375l-38.59375 0zm86.31961 0l0 -47.921875l38.65622 0q2.53125 0 4.65625 1.265625q2.140625 1.265625 3.40625 3.375q1.265625 2.09375 1.265625 4.625l0 12.921875q0 2.53125 -1.265625 4.671875q-1.265625 2.125 -3.40625 3.359375q-2.125 1.234375 -4.65625 1.234375l-29.859344 0.078125l0 16.390625l-8.796875 0zm9.59375 -25.328125l28.671844 0q0.328125 0 0.59375 -0.203125q0.265625 -0.203125 0.265625 -0.53125l0 -12.265625q0 -0.328125 -0.265625 -0.5625q-0.265625 -0.234375 -0.59375 -0.234375l-28.671844 0q-0.328125 0 -0.5625 0.234375q-0.234375 0.234375 -0.234375 0.5625l0 12.265625q0 0.328125 0.234375 0.53125q0.234375 0.203125 0.5625 0.203125zm63.65326 25.328125l0 -38.734375q0 -2.53125 1.265625 -4.625q1.28125 -2.09375 3.375 -3.359375q2.09375 -1.28125 4.625 -1.28125l29.40625 0q2.53125 0 4.65625 1.28125q2.140625 1.265625 3.40625 3.359375q1.265625 2.09375 1.265625 4.625l0 38.734375l-8.859375 0l0 -16.125l-30.328125 0l0 16.125l-8.8125 0l0 0zm8.8125 -24.921875l30.328125 0l0 -13.40625q0 -0.328125 -0.28125 -0.5625q-0.265625 -0.234375 -0.59375 -0.234375l-28.65625 0q-0.34375 0 -0.578125 0.234375q-0.21875 0.234375 -0.21875 0.5625l0 13.40625l0 0zm76.24658 24.921875q-2.53125 0 -4.640625 -1.265625q-2.09375 -1.265625 -3.359375 -3.359375q-1.265625 -2.109375 -1.265625 -4.640625l0 -3.671875l8.796875 0l0 3.265625q0 0.34375 0.234375 0.578125q0.234375 0.234375 0.5625 0.234375l28.734375 0q0.328125 0 0.5625 -0.234375q0.234375 -0.234375 0.234375 -0.578125l0 -9.125q0 -0.328125 -0.234375 -0.53125q-0.234375 -0.203125 -0.5625 -0.203125l-29.0625 0q-2.53125 0 -4.640625 -1.265625q-2.09375 -1.265625 -3.359375 -3.359375q-1.265625 -2.109375 -1.265625 -4.703125l0 -9.875q0 -2.53125 1.265625 -4.625q1.265625 -2.09375 3.359375 -3.359375q2.109375 -1.28125 4.640625 -1.28125l29.46875 0q2.53125 0 4.625 1.28125q2.109375 1.265625 3.375 3.359375q1.265625 2.09375 1.265625 4.625l0 3.671875l-8.875 0l0 -3.265625q0 -0.328125 -0.234375 -0.5625q-0.234375 -0.234375 -0.5625 -0.234375l-28.734375 0q-0.328125 0 -0.5625 0.234375q-0.234375 0.234375 -0.234375 0.5625l0 9.125q0 0.34375 0.234375 0.546875q0.234375 0.1875 0.5625 0.1875l29.140625 0q2.53125 0 4.625 1.28125q2.109375 1.265625 3.375 3.359375q1.265625 2.09375 1.265625 4.703125l0 9.859375q0 2.53125 -1.265625 4.640625q-1.265625 2.09375 -3.375 3.359375q-2.09375 1.265625 -4.625 1.265625l-29.46875 0zm83.59564 0l0 0l0 -39.125l-19.609375 0l0 -8.875l48.0 0l0 8.875l-19.53125 0l0 39.125l-8.859375 0zm62.91089 0q-2.53125 0 -4.640625 -1.265625q-2.09375 -1.265625 -3.359375 -3.359375q-1.265625 -2.109375 -1.265625 -4.640625l0 -29.46875q0 -2.53125 1.265625 -4.625q1.265625 -2.09375 3.359375 -3.359375q2.109375 -1.28125 4.640625 -1.28125l29.46875 0q2.53125 0 4.625 1.28125q2.109375 1.265625 3.375 3.359375q1.265625 2.09375 1.265625 4.625l0 29.46875q0 2.53125 -1.265625 4.640625q-1.265625 2.09375 -3.375 3.359375q-2.09375 1.265625 -4.625 1.265625l-29.46875 0zm0.34375 -8.859375l28.65625 0q0.328125 0 0.59375 -0.234375q0.28125 -0.234375 0.28125 -0.578125l0 -28.65625q0 -0.328125 -0.28125 -0.5625q-0.265625 -0.234375 -0.59375 -0.234375l-28.65625 0q-0.34375 0 -0.578125 0.234375q-0.234375 0.234375 -0.234375 0.5625l0 28.65625q0 0.34375 0.234375 0.578125q0.234375 0.234375 0.578125 0.234375zm104.385254 8.859375l-14.46875 -17.265625l11.53125 0l12.53125 14.796875l0 2.46875l-9.59375 0zm-38.265625 0l0 -47.921875l38.65625 0q2.53125 0 4.65625 1.265625q2.140625 1.265625 3.40625 3.375q1.265625 2.09375 1.265625 4.625l0 12.921875q0 2.53125 -1.265625 4.671875q-1.265625 2.125 -3.40625 3.359375q-2.125 1.234375 -4.65625 1.234375l-29.859375 0.078125l0 16.390625l-8.796875 0zm9.59375 -25.328125l28.671875 0q0.328125 0 0.59375 -0.203125q0.265625 -0.203125 0.265625 -0.53125l0 -12.265625q0 -0.328125 -0.265625 -0.5625q-0.265625 -0.234375 -0.59375 -0.234375l-28.671875 0q-0.328125 0 -0.5625 0.234375q-0.234375 0.234375 -0.234375 0.5625l0 12.265625q0 0.328125 0.234375 0.53125q0.234375 0.203125 0.5625 0.203125z" fill-rule="nonzero"/><path fill="#000000" fill-opacity="0.0" d="m227.65092 150.76115l527.49603 0l0 20.629929l-527.49603 0z" fill-rule="evenodd"/><path fill="#00527a" d="m255.80383 167.79611l0 -10.90625q0 -0.703125 0.328125 -1.28125q0.34375 -0.578125 0.921875 -0.90625q0.578125 -0.34375 1.265625 -0.34375l8.40625 0q0.6875 0 1.25 0.34375q0.578125 0.328125 0.921875 0.90625q0.34375 0.578125 0.34375 1.28125l0 10.90625l-2.265625 0l0 -4.609375l-8.921875 0l0 4.609375l-2.25 0l0 0zm2.25 -6.84375l8.921875 0l0 -4.0q0 -0.140625 -0.109375 -0.234375q-0.09375 -0.09375 -0.234375 -0.09375l-8.25 0q-0.125 0 -0.234375 0.09375q-0.09375 0.09375 -0.09375 0.234375l0 4.0l0 0zm15.752869 6.84375q-0.6875 0 -1.265625 -0.328125q-0.5625 -0.34375 -0.90625 -0.921875q-0.328125 -0.578125 -0.328125 -1.265625l0 -0.90625l2.25 0l0 0.828125q0 0.15625 0.09375 0.25q0.09375 0.09375 0.234375 0.09375l8.25 0q0.140625 0 0.234375 -0.09375q0.109375 -0.09375 0.109375 -0.25l0 -2.671875q0 -0.125 -0.109375 -0.21875q-0.09375 -0.09375 -0.234375 -0.09375l-8.328125 0q-0.6875 0 -1.265625 -0.34375q-0.5625 -0.34375 -0.90625 -0.90625q-0.328125 -0.578125 -0.328125 -1.265625l0 -2.8125q0 -0.703125 0.328125 -1.28125q0.34375 -0.578125 0.90625 -0.90625q0.578125 -0.34375 1.265625 -0.34375l8.421875 0q0.6875 0 1.25 0.34375q0.578125 0.328125 0.921875 0.90625q0.34375 0.578125 0.34375 1.28125l0 0.890625l-2.265625 0l0 -0.828125q0 -0.140625 -0.109375 -0.234375q-0.09375 -0.09375 -0.234375 -0.09375l-8.25 0q-0.140625 0 -0.234375 0.09375q-0.09375 0.09375 -0.09375 0.234375l0 2.671875q0 0.125 0.09375 0.21875q0.09375 0.09375 0.234375 0.09375l8.34375 0q0.6875 0 1.25 0.359375q0.578125 0.34375 0.921875 0.90625q0.34375 0.5625 0.34375 1.265625l0 2.8125q0 0.6875 -0.34375 1.265625q-0.34375 0.578125 -0.921875 0.921875q-0.5625 0.328125 -1.25 0.328125l-8.421875 0zm12.953918 0l0 -13.40625l10.90625 0q0.703125 0 1.265625 0.34375q0.5625 0.34375 0.90625 0.921875q0.359375 0.5625 0.359375 1.25l0 3.6875q0 0.671875 -0.359375 1.25q-0.34375 0.578125 -0.90625 0.921875q-0.5625 0.328125 -1.265625 0.328125l-8.671875 0.015625l0 4.6875l-2.234375 0zm2.578125 -6.953125l8.234375 0q0.15625 0 0.25 -0.09375q0.109375 -0.09375 0.109375 -0.25l0 -3.546875q0 -0.125 -0.109375 -0.21875q-0.09375 -0.109375 -0.25 -0.109375l-8.234375 0q-0.140625 0 -0.25 0.109375q-0.09375 0.09375 -0.09375 0.21875l0 3.546875q0 0.15625 0.09375 0.25q0.109375 0.09375 0.25 0.09375zm12.022705 6.953125l0 -13.4375l2.21875 0l0 13.4375l-2.21875 0zm15.008057 0l-4.125 -4.921875l2.921875 0l3.71875 4.40625l0 0.515625l-2.515625 0zm-10.859375 0l0 -13.40625l10.90625 0q0.703125 0 1.265625 0.34375q0.5625 0.34375 0.90625 0.921875q0.359375 0.5625 0.359375 1.25l0 3.6875q0 0.671875 -0.359375 1.25q-0.34375 0.578125 -0.90625 0.921875q-0.5625 0.328125 -1.265625 0.328125l-8.671875 0.015625l0 4.6875l-2.234375 0zm2.578125 -6.953125l8.234375 0q0.15625 0 0.25 -0.09375q0.109375 -0.09375 0.109375 -0.25l0 -3.546875q0 -0.125 -0.109375 -0.21875q-0.09375 -0.109375 -0.25 -0.109375l-8.234375 0q-0.140625 0 -0.25 0.109375q-0.09375 0.09375 -0.09375 0.21875l0 3.546875q0 0.15625 0.09375 0.25q0.109375 0.09375 0.25 0.09375zm12.657043 6.953125l0 -13.4375l2.21875 0l0 13.4375l-2.21875 0zm4.1486816 0l0 -13.4375l2.546875 0l8.625 10.265625l0 -10.265625l2.265625 0l0 13.4375l-2.5625 0l-8.640625 -10.28125l0 10.28125l-2.234375 0zm18.037628 0q-0.6875 0 -1.265625 -0.328125q-0.578125 -0.34375 -0.921875 -0.921875q-0.328125 -0.578125 -0.328125 -1.265625l0 -8.390625q0 -0.703125 0.328125 -1.28125q0.34375 -0.578125 0.921875 -0.90625q0.578125 -0.34375 1.265625 -0.34375l8.390625 0q0.703125 0 1.265625 0.34375q0.5625 0.328125 0.90625 0.90625q0.359375 0.578125 0.359375 1.28125l0 0.90625l-2.265625 0l0 -0.84375q0 -0.140625 -0.109375 -0.234375q-0.09375 -0.09375 -0.25 -0.09375l-8.234375 0q-0.140625 0 -0.25 0.09375q-0.09375 0.09375 -0.09375 0.234375l0 8.25q0 0.15625 0.09375 0.25q0.109375 0.09375 0.25 0.09375l8.234375 0q0.15625 0 0.25 -0.09375q0.109375 -0.09375 0.109375 -0.25l0 -2.625l-3.09375 0l0 -2.265625l5.359375 0l0 4.96875q0 0.6875 -0.359375 1.265625q-0.34375 0.578125 -0.90625 0.921875q-0.5625 0.328125 -1.265625 0.328125l-8.390625 0zm20.0755 0q-0.6875 0 -1.265625 -0.328125q-0.578125 -0.34375 -0.921875 -0.921875q-0.328125 -0.578125 -0.328125 -1.265625l0 -1.421875l2.234375 0l0 1.34375q0 0.15625 0.09375 0.25q0.109375 0.09375 0.25 0.09375l8.234375 0q0.15625 0 0.25 -0.09375q0.109375 -0.09375 0.109375 -0.25l0 -10.84375l2.25 0l0 10.921875q0 0.6875 -0.34375 1.265625q-0.34375 0.578125 -0.921875 0.921875q-0.5625 0.328125 -1.25 0.328125l-8.390625 0zm15.48938 0q-0.703125 0 -1.28125 -0.328125q-0.578125 -0.34375 -0.921875 -0.921875q-0.328125 -0.578125 -0.328125 -1.265625l0 -10.921875l2.25 0l0 10.84375q0 0.15625 0.09375 0.25q0.109375 0.09375 0.234375 0.09375l8.25 0q0.15625 0 0.25 -0.09375q0.109375 -0.09375 0.109375 -0.25l0 -10.84375l2.25 0l0 10.921875q0 0.6875 -0.34375 1.265625q-0.34375 0.578125 -0.921875 0.921875q-0.5625 0.328125 -1.25 0.328125l-8.390625 0l0 0zm12.963013 0l0 -13.4375l2.546875 0l8.625 10.265625l0 -10.265625l2.265625 0l0 13.4375l-2.5625 0l-8.640625 -10.28125l0 10.28125l-2.234375 0zm15.365753 0l0 -13.4375l2.21875 0l0 13.4375l-2.21875 0zm6.6330566 0q-0.703125 0 -1.28125 -0.328125q-0.578125 -0.34375 -0.921875 -0.921875q-0.328125 -0.578125 -0.328125 -1.265625l0 -8.390625q0 -0.703125 0.328125 -1.28125q0.34375 -0.578125 0.921875 -0.90625q0.578125 -0.34375 1.28125 -0.34375l8.390625 0q0.6875 0 1.25 0.34375q0.578125 0.328125 0.921875 0.90625q0.34375 0.578125 0.34375 1.28125l0 8.390625q0 0.6875 -0.34375 1.265625q-0.34375 0.578125 -0.921875 0.921875q-0.5625 0.328125 -1.25 0.328125l-8.390625 0zm0.046875 -2.25l8.25 0q0.15625 0 0.25 -0.09375q0.109375 -0.09375 0.109375 -0.25l0 -8.25q0 -0.140625 -0.109375 -0.234375q-0.09375 -0.09375 -0.25 -0.09375l-8.25 0q-0.125 0 -0.234375 0.09375q-0.09375 0.09375 -0.09375 0.234375l0 8.25q0 0.15625 0.09375 0.25q0.109375 0.09375 0.234375 0.09375zm23.775482 2.25l-4.125 -4.921875l2.921875 0l3.71875 4.40625l0 0.515625l-2.515625 0zm-10.859375 0l0 -13.40625l10.90625 0q0.703125 0 1.265625 0.34375q0.5625 0.34375 0.90625 0.921875q0.359375 0.5625 0.359375 1.25l0 3.6875q0 0.671875 -0.359375 1.25q-0.34375 0.578125 -0.90625 0.921875q-0.5625 0.328125 -1.265625 0.328125l-8.671875 0.015625l0 4.6875l-2.234375 0zm2.578125 -6.953125l8.234375 0q0.15625 0 0.25 -0.09375q0.109375 -0.09375 0.109375 -0.25l0 -3.546875q0 -0.125 -0.109375 -0.21875q-0.09375 -0.109375 -0.25 -0.109375l-8.234375 0q-0.140625 0 -0.25 0.109375q-0.09375 0.09375 -0.09375 0.21875l0 3.546875q0 0.15625 0.09375 0.25q0.109375 0.09375 0.25 0.09375zm18.404114 6.953125l0 -13.4375l12.328125 0l0 2.265625l-10.0625 0l0 3.3125l8.109375 0l0 2.28125l-8.109375 0l0 5.578125l-2.265625 0zm15.941589 0q-0.703125 0 -1.28125 -0.328125q-0.578125 -0.34375 -0.921875 -0.921875q-0.328125 -0.578125 -0.328125 -1.265625l0 -10.921875l2.25 0l0 10.84375q0 0.15625 0.09375 0.25q0.109375 0.09375 0.234375 0.09375l8.25 0q0.15625 0 0.25 -0.09375q0.109375 -0.09375 0.109375 -0.25l0 -10.84375l2.25 0l0 10.921875q0 0.6875 -0.34375 1.265625q-0.34375 0.578125 -0.921875 0.921875q-0.5625 0.328125 -1.25 0.328125l-8.390625 0l0 0zm12.978607 0l0 -13.453125l2.234375 0l0 11.203125l11.203125 0l0 2.25l-13.4375 0zm14.533234 0l0 -13.453125l2.234375 0l0 11.203125l11.203125 0l0 2.25l-13.4375 0zm22.514679 0q-0.6875 0 -1.265625 -0.328125q-0.5625305 -0.34375 -0.9062805 -0.921875q-0.328125 -0.578125 -0.328125 -1.265625l0 -0.90625l2.2500305 0l0 0.828125q0 0.15625 0.09375 0.25q0.09375 0.09375 0.234375 0.09375l8.25 0q0.140625 0 0.234375 -0.09375q0.109375 -0.09375 0.109375 -0.25l0 -2.671875q0 -0.125 -0.109375 -0.21875q-0.09375 -0.09375 -0.234375 -0.09375l-8.328125 0q-0.6875 0 -1.265625 -0.34375q-0.5625305 -0.34375 -0.9062805 -0.90625q-0.328125 -0.578125 -0.328125 -1.265625l0 -2.8125q0 -0.703125 0.328125 -1.28125q0.34375 -0.578125 0.9062805 -0.90625q0.578125 -0.34375 1.265625 -0.34375l8.421875 0q0.6875 0 1.25 0.34375q0.578125 0.328125 0.921875 0.90625q0.34375 0.578125 0.34375 1.28125l0 0.890625l-2.265625 0l0 -0.828125q0 -0.140625 -0.109375 -0.234375q-0.09375 -0.09375 -0.234375 -0.09375l-8.25 0q-0.140625 0 -0.234375 0.09375q-0.09375 0.09375 -0.09375 0.234375l0 2.671875q0 0.125 0.09375 0.21875q0.09375 0.09375 0.234375 0.09375l8.34375 0q0.6875 0 1.25 0.359375q0.578125 0.34375 0.921875 0.90625q0.34375 0.5625 0.34375 1.265625l0 2.8125q0 0.6875 -0.34375 1.265625q-0.34375 0.578125 -0.921875 0.921875q-0.5625 0.328125 -1.25 0.328125l-8.421875 0zm17.875793 0l0 0l0 -11.171875l-5.59375 0l0 -2.265625l13.4375 0l0 2.265625l-5.578125 0l0 11.171875l-2.265625 0zm9.26947 0l0 -10.90625q0 -0.703125 0.328125 -1.28125q0.34375 -0.578125 0.921875 -0.90625q0.578125 -0.34375 1.265625 -0.34375l8.40625 0q0.6875 0 1.25 0.34375q0.578125 0.328125 0.921875 0.90625q0.34375 0.578125 0.34375 1.28125l0 10.90625l-2.265625 0l0 -4.609375l-8.921875 0l0 4.609375l-2.25 0l0 0zm2.25 -6.84375l8.921875 0l0 -4.0q0 -0.140625 -0.109375 -0.234375q-0.09375 -0.09375 -0.234375 -0.09375l-8.25 0q-0.125 0 -0.234375 0.09375q-0.09375 0.09375 -0.09375 0.234375l0 4.0l0 0zm15.830994 6.84375q-0.6875 0 -1.265625 -0.328125q-0.578125 -0.34375 -0.921875 -0.921875q-0.328125 -0.578125 -0.328125 -1.265625l0 -8.390625q0 -0.703125 0.328125 -1.28125q0.34375 -0.578125 0.921875 -0.90625q0.578125 -0.34375 1.265625 -0.34375l10.875 0l0 2.265625l-10.484375 0q-0.296875 0 -0.484375 0.171875q-0.1875 0.171875 -0.1875 0.484375l0 7.609375q0 0.296875 0.1875 0.484375q0.1875 0.171875 0.484375 0.171875l10.484375 0l0 2.25l-10.875 0zm12.835449 0l0 -13.4375l2.265625 0l0 5.578125l3.421875 0l4.6875 -5.578125l2.515625 0l0 0.546875l-5.1875 6.171875l5.1875 6.171875l0 0.546875l-2.515625 0l-4.6875 -5.578125l-3.421875 0l0 5.578125l-2.265625 0zm20.444214 0l0 -13.4375l10.921875 0q0.6875 0 1.25 0.34375q0.578125 0.328125 0.921875 0.90625q0.34375 0.578125 0.34375 1.28125l0 8.390625q0 0.6875 -0.34375 1.265625q-0.34375 0.578125 -0.921875 0.921875q-0.5625 0.328125 -1.25 0.328125l-10.921875 0zm2.578125 -2.25l8.25 0q0.140625 0 0.234375 -0.09375q0.109375 -0.09375 0.109375 -0.25l0 -8.25q0 -0.140625 -0.109375 -0.234375q-0.09375 -0.09375 -0.234375 -0.09375l-8.25 0q-0.15625 0 -0.265625 0.09375q-0.09375 0.09375 -0.09375 0.234375l0 8.25q0 0.15625 0.09375 0.25q0.109375 0.09375 0.265625 0.09375zm12.981201 2.25l0 -13.4375l12.328125 0l0 2.265625l-10.0625 0l0 3.3125l8.109375 0l0 2.28125l-8.109375 0l0 3.328125l10.0625 0l0 2.25l-12.328125 0zm21.650085 0l0 0l-7.78125 -13.4375l2.609375 0l6.21875 10.8125l6.21875 -10.8125l2.59375 0l-7.78125 13.4375l-2.078125 0zm11.352844 0l0 -13.4375l12.328125 0l0 2.265625l-10.0625 0l0 3.3125l8.109375 0l0 2.28125l-8.109375 0l0 3.328125l10.0625 0l0 2.25l-12.328125 0zm14.275085 0l0 -13.453125l2.234375 0l0 11.203125l11.203125 0l0 2.25l-13.4375 0zm17.001953 0q-0.703125 0 -1.28125 -0.328125q-0.578125 -0.34375 -0.921875 -0.921875q-0.328125 -0.578125 -0.328125 -1.265625l0 -8.390625q0 -0.703125 0.328125 -1.28125q0.34375 -0.578125 0.921875 -0.90625q0.578125 -0.34375 1.28125 -0.34375l8.390625 0q0.6875 0 1.25 0.34375q0.578125 0.328125 0.921875 0.90625q0.34375 0.578125 0.34375 1.28125l0 8.390625q0 0.6875 -0.34375 1.265625q-0.34375 0.578125 -0.921875 0.921875q-0.5625 0.328125 -1.25 0.328125l-8.390625 0zm0.046875 -2.25l8.25 0q0.15625 0 0.25 -0.09375q0.109375 -0.09375 0.109375 -0.25l0 -8.25q0 -0.140625 -0.109375 -0.234375q-0.09375 -0.09375 -0.25 -0.09375l-8.25 0q-0.125 0 -0.234375 0.09375q-0.09375 0.09375 -0.09375 0.234375l0 8.25q0 0.15625 0.09375 0.25q0.109375 0.09375 0.234375 0.09375zm12.916138 2.25l0 -13.40625l10.90625 0q0.703125 0 1.265625 0.34375q0.5625 0.34375 0.90625 0.921875q0.359375 0.5625 0.359375 1.25l0 3.6875q0 0.671875 -0.359375 1.25q-0.34375 0.578125 -0.90625 0.921875q-0.5625 0.328125 -1.265625 0.328125l-8.671875 0.015625l0 4.6875l-2.234375 0zm2.578125 -6.953125l8.234375 0q0.15625 0 0.25 -0.09375q0.109375 -0.09375 0.109375 -0.25l0 -3.546875q0 -0.125 -0.109375 -0.21875q-0.09375 -0.109375 -0.25 -0.109375l-8.234375 0q-0.140625 0 -0.25 0.109375q-0.09375 0.09375 -0.09375 0.21875l0 3.546875q0 0.15625 0.09375 0.25q0.109375 0.09375 0.25 0.09375zm12.210205 6.953125l0 -13.4375l12.328125 0l0 2.265625l-10.0625 0l0 3.3125l8.109375 0l0 2.28125l-8.109375 0l0 3.328125l10.0625 0l0 2.25l-12.328125 0zm25.118835 0l-4.125 -4.921875l2.921875 0l3.71875 4.40625l0 0.515625l-2.515625 0zm-10.859375 0l0 -13.40625l10.90625 0q0.703125 0 1.265625 0.34375q0.5625 0.34375 0.90625 0.921875q0.359375 0.5625 0.359375 1.25l0 3.6875q0 0.671875 -0.359375 1.25q-0.34375 0.578125 -0.90625 0.921875q-0.5625 0.328125 -1.265625 0.328125l-8.671875 0.015625l0 4.6875l-2.234375 0zm2.578125 -6.953125l8.234375 0q0.15625 0 0.25 -0.09375q0.109375 -0.09375 0.109375 -0.25l0 -3.546875q0 -0.125 -0.109375 -0.21875q-0.09375 -0.109375 -0.25 -0.109375l-8.234375 0q-0.140625 0 -0.25 0.109375q-0.09375 0.09375 -0.09375 0.21875l0 3.546875q0 0.15625 0.09375 0.25q0.109375 0.09375 0.25 0.09375z" fill-rule="nonzero"/></g></svg>