<svg version="1.1" viewBox="0.0 0.0 917.01312335958 213.6482939632546" fill="none" stroke="none" stroke-linecap="square" stroke-miterlimit="10" xmlns:xlink="http://www.w3.org/1999/xlink" xmlns="http://www.w3.org/2000/svg"><clipPath id="p.0"><path d="m0 0l917.0131 0l0 213.6483l-917.0131 0l0 -213.6483z" clip-rule="nonzero"/></clipPath><g clip-path="url(#p.0)"><path fill="#000000" fill-opacity="0.0" d="m0 0l917.0131 0l0 213.6483l-917.0131 0z" fill-rule="evenodd"/><g mask="url(#mask-p.1)"><use xlink:href="#p.1" transform="matrix(1.0 0.0 0.0 -1.0 0.0 309.94158950131236)"/></g><defs><mask id="mask-p.1" maskUnits="userSpaceOnUse" x="23.38976377952756" y="156.97079475065618" width="212.4354026246719" height="123.06527559055121"><linearGradient gradientUnits="userSpaceOnUse" id="gradient-p.1" x1="23.3897637823114" y1="156.97002573660677" x2="23.38963013294802" y2="193.8898405845647"><stop offset="0%" stop-color="#ffffff" stop-opacity="1.0"/><stop offset="100%" stop-color="#ffffff" stop-opacity="0.0"/></linearGradient><rect fill="url(#gradient-p.1)" x="23.38976377952756" y="156.97079475065618" width="212.4354026246719" height="123.06527559055121"/></mask></defs><g id="p.1"><path fill="#4dc5ff" d="m227.79625 103.79304l-102.727974 -29.086884l-14.258453 15.378784l75.18243 32.09606l-90.737595 -12.704575l-22.68406 25.074875l163.25458 17.991318l-212.4354 0.42817688l77.04972 -99.66178l-5.1848297 -23.403494z" fill-rule="evenodd"/></g><path fill="#000000" fill-opacity="0.0" d="m229.12958 52.146416l671.1811 0l0 130.11023l-671.1811 0z" fill-rule="evenodd"/><path fill="#4dc5ff" d="m296.51486 150.85666l-14.46875 -17.265625l11.53125 0l12.53125 14.796875l0 2.46875l-9.59375 0zm-38.265625 0l0 -47.921883l38.65625 0q2.53125 0 4.65625 1.265625q2.140625 1.265625 3.40625 3.375q1.265625 2.09375 1.265625 4.625l0 12.921875q0 2.53125 -1.265625 4.6718826q-1.265625 2.125 -3.40625 3.359375q-2.125 1.234375 -4.65625 1.234375l-29.859375 0.078125l0 16.390625l-8.796875 0zm9.59375 -25.328133l28.671875 0q0.328125 0 0.59375 -0.203125q0.265625 -0.203125 0.265625 -0.53125l0 -12.265625q0 -0.328125 -0.265625 -0.5625q-0.265625 -0.234375 -0.59375 -0.234375l-28.671875 0q-0.328125 0 -0.5625 0.234375q-0.234375 0.234375 -0.234375 0.5625l0 12.265625q0 0.328125 0.234375 0.53125q0.234375 0.203125 0.5625 0.203125zm64.857086 25.328133l0 -48.000008l8.734375 0l0 48.000008l-8.734375 0zm44.86444 0q-2.53125 0 -4.640625 -1.265625q-2.09375 -1.265625 -3.359375 -3.359375q-1.265625 -2.109375 -1.265625 -4.640625l0 -29.468758q0 -2.53125 1.265625 -4.625q1.265625 -2.09375 3.359375 -3.359375q2.109375 -1.28125 4.640625 -1.28125l38.59375 0l0 8.875l-36.734375 0q-1.0625 0 -1.703125 0.609375q-0.625 0.59375 -0.625 1.71875l0 25.593758q0 1.078125 0.625 1.71875q0.640625 0.625 1.703125 0.625l36.734375 0l0 8.859375l-38.59375 0zm86.31961 0l0 -47.921883l38.65622 0q2.53125 0 4.65625 1.265625q2.140625 1.265625 3.40625 3.375q1.265625 2.09375 1.265625 4.625l0 12.921875q0 2.53125 -1.265625 4.6718826q-1.265625 2.125 -3.40625 3.359375q-2.125 1.234375 -4.65625 1.234375l-29.859344 0.078125l0 16.390625l-8.796875 0zm9.59375 -25.328133l28.671844 0q0.328125 0 0.59375 -0.203125q0.265625 -0.203125 0.265625 -0.53125l0 -12.265625q0 -0.328125 -0.265625 -0.5625q-0.265625 -0.234375 -0.59375 -0.234375l-28.671844 0q-0.328125 0 -0.5625 0.234375q-0.234375 0.234375 -0.234375 0.5625l0 12.265625q0 0.328125 0.234375 0.53125q0.234375 0.203125 0.5625 0.203125zm63.65329 25.328133l0 -38.734383q0 -2.53125 1.265625 -4.625q1.28125 -2.09375 3.375 -3.359375q2.09375 -1.28125 4.625 -1.28125l29.40625 0q2.53125 0 4.65625 1.28125q2.140625 1.265625 3.40625 3.359375q1.265625 2.09375 1.265625 4.625l0 38.734383l-8.859375 0l0 -16.125l-30.328125 0l0 16.125l-8.8125 0l0 0zm8.8125 -24.921883l30.328125 0l0 -13.40625q0 -0.328125 -0.28125 -0.5625q-0.265625 -0.234375 -0.59375 -0.234375l-28.65625 0q-0.34375 0 -0.578125 0.234375q-0.21875 0.234375 -0.21875 0.5625l0 13.40625l0 0zm76.24658 24.921883q-2.53125 0 -4.640625 -1.265625q-2.09375 -1.265625 -3.359375 -3.359375q-1.265625 -2.109375 -1.265625 -4.640625l0 -3.671875l8.796875 0l0 3.265625q0 0.34375 0.234375 0.578125q0.234375 0.234375 0.5625 0.234375l28.734375 0q0.328125 0 0.5625 -0.234375q0.234375 -0.234375 0.234375 -0.578125l0 -9.125q0 -0.328125 -0.234375 -0.53125q-0.234375 -0.203125 -0.5625 -0.203125l-29.0625 0q-2.53125 0 -4.640625 -1.265625q-2.09375 -1.265625 -3.359375 -3.3593826q-1.265625 -2.109375 -1.265625 -4.703125l0 -9.875q0 -2.53125 1.265625 -4.625q1.265625 -2.09375 3.359375 -3.359375q2.109375 -1.28125 4.640625 -1.28125l29.46875 0q2.53125 0 4.625 1.28125q2.109375 1.265625 3.375 3.359375q1.265625 2.09375 1.265625 4.625l0 3.671875l-8.875 0l0 -3.265625q0 -0.328125 -0.234375 -0.5625q-0.234375 -0.234375 -0.5625 -0.234375l-28.734375 0q-0.328125 0 -0.5625 0.234375q-0.234375 0.234375 -0.234375 0.5625l0 9.125q0 0.34375 0.234375 0.546875q0.234375 0.1875 0.5625 0.1875l29.140625 0q2.53125 0 4.625 1.28125q2.109375 1.265625 3.375 3.359375q1.265625 2.0937576 1.265625 4.7031326l0 9.859375q0 2.53125 -1.265625 4.640625q-1.265625 2.09375 -3.375 3.359375q-2.09375 1.265625 -4.625 1.265625l-29.46875 0zm83.59564 0l0 0l0 -39.125008l-19.609375 0l0 -8.875l48.0 0l0 8.875l-19.53125 0l0 39.125008l-8.859375 0zm62.910828 0q-2.53125 0 -4.640625 -1.265625q-2.09375 -1.265625 -3.359375 -3.359375q-1.265625 -2.109375 -1.265625 -4.640625l0 -29.468758q0 -2.53125 1.265625 -4.625q1.265625 -2.09375 3.359375 -3.359375q2.109375 -1.28125 4.640625 -1.28125l29.46875 0q2.53125 0 4.625 1.28125q2.109375 1.265625 3.375 3.359375q1.265625 2.09375 1.265625 4.625l0 29.468758q0 2.53125 -1.265625 4.640625q-1.265625 2.09375 -3.375 3.359375q-2.09375 1.265625 -4.625 1.265625l-29.46875 0zm0.34375 -8.859375l28.65625 0q0.328125 0 0.59375 -0.234375q0.28125 -0.234375 0.28125 -0.578125l0 -28.656258q0 -0.328125 -0.28125 -0.5625q-0.265625 -0.234375 -0.59375 -0.234375l-28.65625 0q-0.34375 0 -0.578125 0.234375q-0.234375 0.234375 -0.234375 0.5625l0 28.656258q0 0.34375 0.234375 0.578125q0.234375 0.234375 0.578125 0.234375zm104.385254 8.859375l-14.46875 -17.265625l11.53125 0l12.53125 14.796875l0 2.46875l-9.59375 0zm-38.265625 0l0 -47.921883l38.65625 0q2.53125 0 4.65625 1.265625q2.140625 1.265625 3.40625 3.375q1.265625 2.09375 1.265625 4.625l0 12.921875q0 2.53125 -1.265625 4.6718826q-1.265625 2.125 -3.40625 3.359375q-2.125 1.234375 -4.65625 1.234375l-29.859375 0.078125l0 16.390625l-8.796875 0zm9.59375 -25.328133l28.671875 0q0.328125 0 0.59375 -0.203125q0.265625 -0.203125 0.265625 -0.53125l0 -12.265625q0 -0.328125 -0.265625 -0.5625q-0.265625 -0.234375 -0.59375 -0.234375l-28.671875 0q-0.328125 0 -0.5625 0.234375q-0.234375 0.234375 -0.234375 0.5625l0 12.265625q0 0.328125 0.234375 0.53125q0.234375 0.203125 0.5625 0.203125z" fill-rule="nonzero"/></g></svg>